<svg width="332" height="332" viewBox="0 0 332 332" fill="none" xmlns="http://www.w3.org/2000/svg">
<path d="M166 0C74.4 0 0 74.4 0 166C0 257.6 74.4 332 166 332C257.6 332 332 257.6 332 166C332 74.4 257.6 0 166 0ZM166 317.6C82.4 317.6 14.4 249.6 14.4 166C14.4 82.4 82.4 14.4 166 14.4C249.6 14.4 317.6 82.4 317.6 166C317.6 249.6 249.6 317.6 166 317.6Z" fill="black"/>
<path d="M252.4 130H202V79.6C202 75.6 198.8 72.4 194.8 72.4H137.2C133.2 72.4 130 75.6 130 79.6V130H79.6C75.6 130 72.4 133.2 72.4 137.2V194.8C72.4 198.8 75.6 202 79.6 202H130V252.4C130 256.4 133.2 259.6 137.2 259.6H194.8C198.8 259.6 202 256.4 202 252.4V202H252.4C256.4 202 259.6 198.8 259.6 194.8V137.2C259.2 133.2 256 130 252.4 130ZM245.6 187.6H245.2H194.8C190.8 187.6 187.6 190.8 187.6 194.8V245.2H144.4V194.8C144.4 190.8 141.2 187.6 137.2 187.6H86.8V144.4H137.2C141.2 144.4 144.4 141.2 144.4 137.2V86.8H188V137.2C188 141.2 191.2 144.4 195.2 144.4H245.6V187.6Z" fill="black"/>
</svg>
